<svg width="399" height="306" viewBox="0 0 399 306" fill="none" xmlns="http://www.w3.org/2000/svg">
<path d="M240.428 0.97755C277.876 0.560192 320.276 -4.36956 349.724 12.6695C379.167 29.7063 382.118 61.3 390.975 88.0893C398.589 111.117 400.667 134.203 397.71 157.803C394.727 181.616 388.5 204.785 373.691 226.069C357.185 249.791 338.305 273.823 307.36 287.656C274.882 302.173 235.277 309.05 197.74 304.717C160.86 300.46 133.83 279.007 102.543 264.013C69.5727 248.212 25.1507 240.255 8.48451 214.018C-8.19061 187.767 2.50461 155.819 16.634 128.77C29.1333 104.842 61.2017 91.0788 83.1126 71.1544C103.646 52.4824 113.853 27.4367 141.761 14.9873C170.904 1.98652 206.356 1.35727 240.428 0.97755Z" fill="url(#paint0_linear)"/>
<defs>
<linearGradient id="paint0_linear" x1="199.5" y1="0" x2="199.5" y2="306" gradientUnits="userSpaceOnUse">
<stop stop-color="#60EFFF" stop-opacity="0.76"/>
<stop offset="1" stop-color="#0061FF" stop-opacity="0.95"/>
</linearGradient>
</defs>
</svg>
